<svg width="628" height="714" viewBox="0 0 628 714" fill="none" xmlns="http://www.w3.org/2000/svg">
<path fill-rule="evenodd" clip-rule="evenodd" d="M612.505 401.169C603.725 402.007 594.944 402.843 586.163 403.681C544.111 406.803 502.074 413.324 460.344 417.237C459.304 415.594 457.271 415.864 456.036 417.006C451.872 416.652 447.205 413.559 443.433 416.776C443.31 416.759 443.188 416.74 443.064 416.728C436.348 404.202 431.706 390.842 427.2 377.463C424.324 369.238 420.455 361.276 413.305 355.753C401.103 347.522 373.144 330.831 358.815 331.532C358.578 329.039 357.382 326.47 355.418 324.81C359.746 317.64 342.441 312.962 341.221 313.793C342.003 289.839 330.408 269.036 304.84 264.266C281.934 259.627 249.354 258.848 237.035 282.11C235.68 281.962 221.838 281.892 220.499 282.038C218.416 279.475 195.548 303.76 204.921 312.215C121.125 348.236 73.4782 343.938 50.2848 445.203C47.1492 454.716 46.9209 465.126 43.6099 474.427C31.8304 501.155 22.2761 529.617 19.8983 558.701C14.1553 560.131 13.4948 569.97 20.1469 571.394C22.6879 571.938 24.8127 572.681 26.6655 574.091C25.2171 597.925 31.149 652.369 34.8865 652.201C42.5075 675.77 76.5009 682.422 100.567 674.14C96.4184 681.724 100.567 686.493 100.567 690.546C187.164 693.729 281.848 691.896 368.421 696.262C379.495 696.109 391.143 698.905 402.065 697.296C408.727 695.744 408.738 685.566 401.981 684.308L431.505 678.076C430.845 677.834 443.675 669.542 453.371 654.046C462.397 636.711 456.254 615.786 460.344 596.93C492.285 594.392 524.754 593.306 556.346 588.05C560.654 600.574 579.3 585.596 585.227 579.571C585.22 579.561 585.212 579.552 585.205 579.542C588.073 578.78 590.374 576.168 590.451 573.075C592.462 570.282 592.884 566.345 590.955 563.646C599.797 514.069 613.276 463.45 618.148 413.407C619.87 413.036 621.492 412.302 622.867 411.172L622.756 411.064C625.085 408.54 625.539 404.183 621.654 402.038C618.521 400.307 615.905 400.844 612.505 401.169Z" fill="#EDB98A"/>
<path fill-rule="evenodd" clip-rule="evenodd" d="M278.556 586.723L285.32 590.906L340.663 608.235L374.483 612.417L402.154 608.235V654.246L407.688 697.269C405.229 701.651 381.862 701.651 337.588 697.269C309.365 694.475 206.215 693.12 182.73 692.524L181.4 692.488C153.803 691.715 126.541 691.715 99.6161 692.488V676.355L176.48 639.307L245.351 601.662L278.556 586.723ZM239.343 278.349L244.425 282.038L233.328 299.755L287.387 342.247V376.187L304.501 391.917L314.284 376.187L328.069 358.373L337.865 329.497L334.529 310.473L341.237 309.859C341.269 311.16 341.264 312.471 341.221 313.793C342.441 312.962 359.746 317.64 355.418 324.81C357.382 326.47 358.578 329.039 358.815 331.532C373.144 330.831 401.102 347.522 413.305 355.753C420.455 361.276 424.324 369.238 427.2 377.463L427.877 379.47L428.576 381.529L429.281 383.588C433.172 394.902 437.374 406.115 443.064 416.728C443.188 416.74 443.31 416.759 443.433 416.776C447.205 413.559 451.872 416.652 456.036 417.006C457.242 415.891 459.21 415.607 460.269 417.125L460.343 417.237L408.462 427.169L374.236 543.836L344.429 520.325L328.43 522.637L286.18 537.444L237.041 549.848L124.862 579.902H110.576L27.4491 560.395L19.9576 557.992C22.4315 529.155 31.9261 500.938 43.6099 474.427C46.9209 465.126 47.1492 454.716 50.2848 445.203C73.4781 343.938 121.125 348.236 204.921 312.215C195.548 303.76 218.416 279.475 220.499 282.038L220.63 282.027L220.914 282.012L221.279 281.999C224.548 281.907 235.819 281.977 237.035 282.11C237.739 280.779 238.511 279.527 239.343 278.349Z" fill="#7A77FF"/>
<path fill-rule="evenodd" clip-rule="evenodd" d="M620.798 404.711L619.252 413.08C618.885 413.197 618.511 413.296 618.133 413.377C617.647 418.366 617.076 423.36 616.432 428.359L606.851 480.249C605.199 489.429 603.63 498.629 602.073 507.832L600.009 517.717L598.731 523.861C595.972 537.166 593.292 550.428 590.94 563.616C591.295 564.113 591.571 564.652 591.771 565.217L591.59 565.961L591.464 566.456L591.335 566.946C589.48 573.878 586.251 580.6 578.641 582.64C572.902 584.178 566.604 584.317 560.677 584.924L560.02 584.993L456.309 596.327C443.778 597.696 431.252 599.107 418.728 600.532L407.87 601.769C392.737 603.472 377.517 604.812 362.607 607.895C362.059 608.008 361.605 608.221 361.235 608.501C364.237 597.456 367.112 586.426 369.716 575.27C372.648 562.714 375.431 550.133 378.567 537.623C384.884 512.418 391.966 487.379 399.719 462.555C401.346 457.345 403.011 452.146 404.712 446.958L405.905 443.332L406.824 440.442C408.246 436.036 410.005 431.508 414.173 429.077C419.052 426.233 425.704 425.761 431.237 424.778L434.984 424.094C440.59 423.077 446.203 422.1 451.823 421.161C478.729 416.663 505.788 413.056 532.946 410.346C561.206 407.526 589.565 405.693 617.958 404.798L620.798 404.711ZM363.384 577.726L363.648 577.748L359.774 607.841C359.155 607.419 358.369 607.161 357.409 607.163C344.702 607.2 332.521 603.253 320.739 598.915L318.945 598.25L313.943 596.382C308.858 594.489 303.746 592.638 298.539 591.102L296.434 590.485L295.364 590.178C291.422 589.059 287.275 588.043 283.174 587.79L282.615 587.76L283.809 587.151C283.984 587.062 284.137 586.962 284.273 586.855C286.53 587.017 288.792 586.973 291.173 586.556C295.65 585.773 300.005 584.259 304.003 582.151L305.789 581.211L306.52 580.834L307.002 580.591L307.483 580.355C310.917 578.691 314.2 577.65 318.536 578.536C323.458 579.542 327.771 582.12 332.208 584.298L332.995 584.679L333.524 584.928L334.064 585.175L334.61 585.417C340.61 588.041 350.159 590.872 352.459 582.945C353.384 579.76 352.66 576.778 351.056 574.163C354.045 573.912 359.383 577.335 363.384 577.726ZM512.733 478.577L512.805 478.938C513.653 483.376 511.526 487.622 508.306 490.717C505.665 493.255 500.991 494.666 499.667 498.318C498.913 500.395 499.715 502.366 501.263 503.739L500.907 503.91L500.558 504.084L500.218 504.259L499.886 504.435L499.563 504.612C494.303 507.549 490.019 512.324 494.763 518.092C500.145 524.636 511.39 524.848 519.313 524.336L519.846 524.3C527.529 523.74 536.629 521.232 540.794 514.339C542.705 511.177 542.495 507.353 539.831 504.646C538.225 503.014 535.359 501.337 532.73 501.139C532.845 499.7 532.669 498.31 532.148 497.137C531.022 494.602 528.024 492.894 525.133 492.833C525.367 487.449 520.929 482.135 517.662 477.831L517.328 477.39L517.005 476.956C515.506 474.929 512.298 476.064 512.733 478.577ZM517.117 484.307L520.093 495.143L520.042 495.232C518.994 497.167 521.742 499.364 523.373 497.738L523.537 497.566C525.472 495.624 528.442 498.234 528.479 500.301C528.532 503.211 526.583 505.46 524.26 506.946L524.098 507.049L523.67 507.307C521.764 508.531 523.207 511.09 525.302 510.779C527.894 510.394 530.019 508.395 531.329 505.901C532.728 506.29 534.321 506.243 535.795 507.044C539.509 509.063 537.373 512.594 534.954 514.728L534.856 514.814L534.659 514.981C530.222 518.658 524.18 519.935 518.485 520.209L518.157 520.224C512.405 520.463 504.91 520.543 499.98 517.255C496.911 515.209 496.023 512.308 498.619 509.559C500.088 508.006 501.57 506.44 503.097 504.925C505.381 505.985 507.421 505.555 509.757 504.553C510.057 504.424 509.891 503.978 509.597 503.978C508.309 503.977 503.579 501.652 503.349 500.167C503.137 498.792 505.753 497.633 507.025 496.968L507.21 496.87L507.37 496.78C508.7 495.996 509.953 495.085 511.098 494.06C514.004 491.461 516.114 488.201 517.036 484.632L517.117 484.307Z" fill="#C2CDE3"/>
<path fill-rule="evenodd" clip-rule="evenodd" d="M238.631 276.707C241.24 270.336 250.06 272.813 249.076 279.506C248.488 283.516 246.228 287.751 244.198 291.265C242.545 294.125 240.66 296.917 238.104 299.061C242.654 303.186 247.377 307.161 252.221 310.935C257.505 315.053 263.062 318.849 268.806 322.337C273.843 325.397 279.107 328.107 283.855 331.598C288.269 334.843 292.291 338.746 294.337 343.842C296.517 349.267 295.57 354.871 293.965 360.293L293.78 360.906C292.14 366.278 289.301 372.754 293.238 377.815C295.242 380.392 298.155 382.216 300.671 384.276C302.907 386.107 305.005 388.098 306.93 390.237C311.127 394.899 314.54 400.145 316.694 405.99L316.887 406.521C318.733 411.695 320.083 418.034 317.588 423.114C316.872 424.57 314.564 424.097 314.163 422.679C313.256 419.467 313.304 416.103 312.544 412.845C311.753 409.457 310.437 406.241 308.718 403.198C305.393 397.312 300.889 392.284 295.569 388.033L293.976 386.774C289.825 383.464 286.011 379.952 285.169 374.474C284.267 368.613 286.684 363.029 288.238 357.482C289.321 353.616 289.674 349.91 288.504 346.416C287.075 348.683 285.124 350.836 283.581 352.756C280.508 356.581 277.407 360.382 274.313 364.191C271.141 368.096 268.048 372.064 265.102 376.133C263.784 377.954 262.48 379.786 261.181 381.619C260.204 382.997 258.841 384.374 257.776 385.779C258.035 386.531 258.016 387.397 257.546 388.013C251.898 395.428 243.863 379.955 241.768 376.046C237.5 368.085 234.324 359.627 230.042 351.668C225.606 343.417 220.554 335.386 214.923 327.854C211.517 323.297 207.7 319.018 204.584 314.317C197.244 320.785 187.584 325.12 178.712 329.052C168.965 333.372 158.837 336.9 148.843 340.647L145.891 341.762C128.67 348.292 111.029 355.467 96.7154 367.068C79.8957 380.699 69.9451 399.699 62.5373 419.374C54.0096 442.023 46.9547 465.285 40.3782 488.531C37.0128 500.425 33.8195 512.373 30.8175 524.359C28.1722 534.919 25.9794 545.584 22.9171 556.035C29.1277 555.822 36.2109 558.158 41.5133 558.833C65.6789 561.906 89.5191 566.806 112.334 575.29C115.152 576.338 115.968 579.073 115.354 581.29C116.979 580.844 118.603 580.392 120.229 579.949C118.448 577.297 119.298 572.558 119.438 569.619L119.446 569.417C119.59 565.501 120.027 561.581 120.311 557.673C120.851 550.222 121.553 542.826 122.488 535.418L122.726 533.565C123.785 525.506 124.568 517.399 125.723 509.353L125.86 508.432C125.306 506.374 124.661 504.34 123.984 502.316C122.18 496.923 119.633 491.847 117.402 486.624C117.139 486.009 118.04 485.656 118.461 486.024C122.241 489.328 125.243 493.519 127.654 497.903C127.696 497.696 127.733 497.489 127.777 497.282L128.052 495.966C128.73 492.756 129.556 489.378 131.582 486.775C131.798 486.498 132.225 486.44 132.429 486.775C134.369 489.964 134.586 494.003 134.884 497.632C135.221 501.737 135.264 505.894 135.204 510.01C135.088 518.055 134.504 526.122 134.04 534.154C133.583 542.047 132.688 549.839 131.534 557.654L131.314 559.119C130.75 562.839 130.288 566.605 129.544 570.3L129.334 571.305C128.936 573.137 128.691 575.72 127.899 577.866C148.276 572.343 168.684 566.946 189.132 561.644C203.91 557.811 218.703 554.036 233.491 550.237C234.271 548.87 235.243 547.594 236.455 546.453C240.45 542.694 245.745 541.016 250.601 543.91C250.996 544.146 251.029 544.747 250.601 544.975C249.671 545.469 248.738 545.976 247.823 546.504L256.702 544.167C263.339 542.419 270.055 540.235 276.848 539.017C289.36 533.017 302.816 528.674 315.996 524.382L317.55 523.871C324.298 521.636 331.278 519.133 338.251 517.893C343.355 516.986 349.347 518.081 351.4 523.162C353.998 524.826 356.443 526.782 358.802 528.706C360.508 530.096 362.143 531.573 363.806 533.012L364.113 533.274C365.472 534.42 366.549 535.187 366.882 537.012C367.055 537.954 366.438 539.228 365.242 539.103C361.583 538.722 358.608 534.6 356.126 532.139C354.208 530.237 352.276 528.269 350.526 526.179C349.506 526.718 348.107 526.621 347.458 525.426C344.091 519.23 334.866 523.524 329.763 524.993L322.451 527.096C318.796 528.149 315.142 529.207 311.494 530.284C301.468 533.242 291.492 536.553 281.375 539.27C282.281 540.237 282.156 541.957 280.437 542.611C272.518 545.63 263.83 547.192 255.603 549.264C250.409 550.573 245.218 551.89 240.029 553.215C239.139 554.615 238.499 556.2 238.229 558.044C237.239 564.827 239.149 572.652 241.009 579.212L241.29 580.191C242.819 585.465 245.069 591.93 249.752 595.261C250.895 596.073 252.35 596.638 253.817 596.766C262.984 592.181 272.15 587.597 281.321 583.021C283.02 582.173 284.59 583.321 284.972 584.685C288.205 584.17 291.432 583.357 294.37 582.388C299.308 580.758 303.164 577.651 307.793 575.501C316.75 571.343 325.896 576.451 333.916 580.333L335.764 581.216C339.36 582.912 346.842 586.169 348.568 581.532C350.237 577.045 344.96 572.25 341.552 570.231C337.49 567.824 332.76 566.536 328.169 565.462C325.548 564.849 322.895 564.349 320.225 563.984C317.197 563.57 314.07 563.632 311.155 562.678C309.706 562.205 309.483 559.969 311.155 559.599C315.642 558.607 320.999 559.689 325.682 560.796L328.129 561.382C332.848 562.507 337.611 563.919 341.909 566.163C345.034 567.796 348.332 570.276 350.487 573.311C352.358 571.622 354.687 571.679 357.113 572.306L358.43 572.661C360.604 573.247 362.366 573.65 364.482 573.244C364.765 571.749 365.051 570.252 365.358 568.756C368.373 554.048 371.679 539.396 375.328 524.823C381.621 499.685 388.902 474.824 397.112 450.217L397.936 447.758C399.829 442.129 401.353 435.997 404.405 430.827C407.292 425.938 411.918 423.121 417.413 421.63C423.649 419.938 430.203 419.052 436.565 417.909C437.984 417.654 439.407 417.412 440.827 417.162C439.627 415.056 438.731 412.665 437.924 410.83L437.782 410.513C436.048 406.671 434.491 402.76 432.987 398.829L431.861 395.873C429.146 388.756 426.342 381.756 422.524 375.099C418.505 368.093 413.173 362.366 406.527 357.626C392.975 347.96 376.641 343.029 363.497 332.7C362.959 332.277 363.649 331.553 364.196 331.821C373.071 336.154 382.652 339.101 391.883 342.629L393.704 343.327C401 346.137 408.41 349.197 414.725 353.748C421.766 358.822 427.311 365.124 431.479 372.617C435.587 380.004 438.214 388.273 441.112 396.163L441.888 398.265C443.057 401.417 444.264 404.56 445.647 407.628C446.746 410.064 448.795 412.844 449.727 415.626C452.276 415.197 454.824 414.766 457.375 414.352C512.636 405.386 568.514 400.118 624.516 398.577C626.707 398.517 627.84 400.549 627.517 402.406C622.143 433.287 617.367 464.275 612.126 495.18C609.839 508.668 607.506 522.146 605.118 535.618C603.909 542.443 602.51 549.242 601.365 556.077C600.44 561.597 599.768 567.161 598.181 572.553C596.757 577.388 594.571 582.05 590.982 585.738C587.113 589.714 581.713 591.639 576.277 592.548C562.478 594.856 548.323 595.799 534.412 597.336L460.348 605.524C461.43 615.084 461.511 624.495 461.014 634.166L460.731 639.446C460.5 643.692 460.223 647.945 459.596 652.148C458.808 657.42 456.327 661.885 452.671 665.822C449.314 669.439 445.236 672.524 441.269 675.481C437.152 678.551 432.897 681.514 428.056 683.413L427.428 683.655C423.18 685.267 415.213 687.762 409.408 686.85C410.167 690.545 411.635 694.517 410.334 698.173C409.73 699.87 407.445 700.717 406.046 699.273C403.273 696.41 403.057 692.629 402.4 688.894C401.717 685.008 401.128 681.108 400.604 677.198C399.592 669.638 398.804 662.009 398.564 654.386C398.317 646.557 398.412 638.717 398.846 630.896C399.07 626.88 399.346 622.867 399.871 618.876C400.095 617.174 400.323 615.471 400.585 613.774C400.68 613.155 400.786 612.539 400.899 611.924L394.252 612.653C384.059 613.758 373.86 614.757 363.595 614.912C362.379 614.93 361.444 614.392 360.833 613.609C360.182 614.64 359.048 615.377 357.424 615.371C343.088 615.319 329.739 610.764 316.7 605.396C310.128 602.689 303.658 599.758 297.075 597.075C290.932 594.57 284.364 592.783 278.369 589.961L262.614 597.991C262.499 598.386 262.351 598.759 262.193 599.072C261.168 601.107 259.145 602.21 257.08 603.041C255.097 603.841 253.044 604.089 251.044 603.887C239.096 609.972 227.145 616.05 215.186 622.114L203.225 628.173C179.393 640.231 155.656 652.487 131.674 664.262L129.908 665.125C121.625 669.161 112.73 673.253 103.538 676.306C103.374 678.567 103.478 680.766 103.673 683.159L103.72 683.68C103.994 686.508 104.581 690.052 102.247 692.065C101.032 693.112 98.8627 693.116 98.0369 691.538C96.5384 688.675 97.8838 684.162 98.3585 681.051C98.527 679.945 98.7324 678.808 99.0361 677.705C88.4977 680.754 77.6402 682.232 66.9161 680.52C56.4748 678.855 48.3881 672.463 41.8688 664.645C34.9885 656.394 30.0993 646.779 27.4761 636.472C24.4907 624.744 24.2957 612.631 24.3658 600.618C24.4402 587.825 24.9273 574.969 26.5285 562.262C24.7741 561.861 22.8286 561.514 21.0558 561.634C20.1777 562.999 18.4743 563.574 16.9352 563.397C13.5882 566.984 22.0777 570.65 24.7907 571.567C25.7328 571.887 25.6319 573.373 24.5454 573.328L23.861 573.297C19.6689 573.08 15.3379 572.385 12.8731 568.599C10.898 565.565 11.4914 561.97 13.8459 559.495C15.401 545.207 19.1188 531.293 22.5789 517.355C25.9745 503.674 29.7506 490.081 33.7531 476.557L35.5475 470.504C41.8493 449.298 48.4363 427.92 57.1291 407.557C61.4698 397.389 66.4703 387.409 73.2485 378.543C79.5667 370.278 87.0262 363.206 95.6006 357.166C111.585 345.905 130.342 339.101 148.771 332.618L149.596 332.328C159.146 328.971 168.673 325.574 178.114 321.937C186.464 318.72 194.463 314.642 202.774 311.377C202.504 310.901 202.243 310.419 201.992 309.932L201.839 310.058C201.813 310.078 201.786 310.098 201.758 310.116C200.922 310.679 199.691 310.402 199.003 309.771C197.058 307.988 197.717 306.008 199.015 304.159L199.184 303.924C200.771 301.762 202.187 299.477 203.653 297.238L204.57 295.837C207.03 292.096 209.615 288.329 212.894 285.237C214.413 283.804 216.076 282.732 217.838 281.933C217.687 281.623 219.008 280.991 219.382 281.309C224.964 279.324 231.385 279.74 237.471 280.287M456.764 605.92L449.004 606.777C440.466 607.721 431.925 608.634 423.383 609.538L404.83 611.497C404.783 612.525 404.654 613.53 404.631 614.306C404.51 618.308 404.419 622.312 404.334 626.314C404.162 634.338 404.35 642.37 404.894 650.378C405.421 658.138 406.115 665.899 407.193 673.606L407.414 675.147L407.542 675.957C408.422 676.04 409.286 676.446 410.005 677.281C411.574 679.102 417.257 677.332 419.476 676.564C423.126 675.302 426.562 673.17 429.733 671.032C432.83 668.945 435.619 666.51 438.299 663.946L440.491 661.839C442.672 659.733 444.855 657.489 446.192 654.84C448.004 651.248 448.238 646.838 448.769 642.925C449.424 638.112 450.203 633.3 451.026 628.512M231.487 555.402L230.682 555.608C201.442 563.158 172.246 570.93 142.916 578.147C128.402 581.719 113.819 585.031 99.2864 588.535L96.9336 589.107C85.4692 591.922 73.8671 595.311 65.0879 603.391C64.7639 603.689 64.2935 603.232 64.5985 602.916C74.0601 593.128 87.5169 588.985 100.438 585.393C102.826 584.729 105.217 584.081 107.606 583.42C90.0344 577.333 72.1853 572.037 53.9242 568.26C49.2219 567.287 44.4649 566.573 39.7664 565.597C36.4896 564.915 33.2894 563.931 30.0472 563.114L27.497 562.49L27.4631 570.323C27.4207 581.416 27.4409 592.5 28.0233 603.592L28.1336 605.647C28.8131 617.991 29.8738 630.591 34.3816 642.229C38.0446 651.687 43.8832 660.597 51.5186 667.486C55.3821 670.972 59.5359 673.685 64.6704 675.025C69.4378 676.269 74.4328 676.414 79.3337 676.083C102.841 674.489 123.767 662.08 144.187 651.806C177.587 635.001 210.991 618.205 244.425 601.464C243.521 600.864 242.67 600.172 241.896 599.395C237.413 594.895 235.048 588.736 233.495 582.77C231.841 576.421 230.852 569.615 230.737 563.06M274.029 607.951C274.324 607.797 274.666 607.99 274.679 608.314C274.782 610.796 273.371 613.243 272.317 615.478L272.205 615.717C270.924 618.486 269.522 621.218 268.071 623.907C265.172 629.28 262.159 634.595 259.014 639.835C252.69 650.376 245.663 660.473 237.357 669.651C235.481 671.725 232.395 669.066 233.599 666.834C239.404 656.072 246.171 645.911 253.137 635.838C256.624 630.795 260.109 625.747 263.63 620.726C265.099 618.631 266.587 616.544 268.115 614.488L269.037 613.259M620.813 404.741C591.471 405.602 562.163 407.461 532.961 410.376C505.803 413.086 478.744 416.693 451.838 421.19C446.218 422.129 440.605 423.107 434.999 424.123L431.637 424.738C426.03 425.77 419.18 426.196 414.188 429.107C408.925 432.175 407.503 438.588 405.752 443.876C403.693 450.096 401.687 456.333 399.734 462.585C391.981 487.409 384.899 512.448 378.582 537.652C375.446 550.163 372.663 562.744 369.731 575.3C367.126 586.456 364.252 597.486 361.25 608.53C361.62 608.251 362.074 608.038 362.622 607.924C377.532 604.842 392.752 603.502 407.885 601.799L409.35 601.633C425.005 599.844 440.66 598.068 456.324 596.357L560.035 585.023C566.152 584.355 572.704 584.264 578.656 582.669C588.777 579.956 591.149 568.962 592.847 560.206L592.898 559.941C598.017 533.486 602.092 506.801 606.866 480.279M363.663 577.777C359.637 577.519 354.126 573.936 351.071 574.192C352.675 576.807 353.399 579.79 352.474 582.975C349.902 591.837 338.27 587.252 332.667 584.544C328.073 582.323 323.637 579.606 318.551 578.565C312.789 577.388 308.885 579.615 304.018 582.181C300.02 584.289 295.665 585.802 291.188 586.586C288.807 587.003 286.545 587.047 284.288 586.884C284.152 586.992 283.999 587.092 283.824 587.181L282.63 587.79C288.029 588.03 293.529 589.649 298.554 591.132C303.761 592.667 308.873 594.518 313.958 596.412L318.96 598.28C331.299 602.871 344.071 607.231 357.424 607.193C358.384 607.191 359.17 607.449 359.789 607.87M341.135 550.007C345.113 549.534 348.785 550.041 351.964 552.557C355.797 555.592 358.372 560.624 363.883 560.955C365.49 561.051 365.863 563.246 364.266 563.705C360.164 564.885 356.843 562.729 354.048 559.929L352.169 558.021C349.407 555.242 346.86 553.093 342.173 553.259C337.155 553.437 332.127 554.564 327.141 555.137C321.492 555.786 315.845 556.34 310.178 556.817C309.915 556.839 309.87 556.436 310.117 556.377L316.463 554.842M337.296 534.204L337.952 534.14C343.728 533.595 349.011 533.574 354.17 536.594L355.159 537.175C359.81 539.922 364.873 543.159 367.781 547.606C368.257 548.335 367.471 549.191 366.674 549.006C361.084 547.702 356.998 543.716 352.297 540.733C347.021 537.386 341.571 537.938 335.555 538.458C329.73 538.962 323.909 539.654 318.142 540.597C312.723 541.483 307.286 542.881 301.812 543.327L301.813 543.316C301.188 543.315 300.831 542.402 301.469 542.093C307.024 539.397 313.458 538.122 319.501 536.89M512.771 478.725C512.212 476.13 515.497 474.927 517.02 476.985L517.344 477.419C520.633 481.798 525.39 487.293 525.148 492.863C528.039 492.924 531.037 494.631 532.163 497.167C532.684 498.34 532.861 499.729 532.746 501.168C535.374 501.367 538.24 503.043 539.847 504.676C542.51 507.382 542.72 511.207 540.81 514.369C536.644 521.262 527.544 523.769 519.861 524.329L519.588 524.348C511.653 524.881 500.219 524.737 494.778 518.122C489.53 511.741 495.33 506.574 501.279 503.769C499.73 502.395 498.928 500.425 499.682 498.347C501.006 494.696 505.68 493.285 508.321 490.747C511.541 487.651 513.668 483.406 512.82 478.967M517.132 484.337C516.257 488.032 514.107 491.412 511.113 494.09C509.968 495.114 508.715 496.026 507.385 496.809L507.225 496.9C506.044 497.544 503.141 498.751 503.364 500.196C503.594 501.682 508.324 504.007 509.612 504.008C509.906 504.008 510.072 504.453 509.772 504.582C507.436 505.585 505.396 506.014 503.112 504.955C501.585 506.469 500.103 508.036 498.634 509.589C496.038 512.337 496.926 515.239 499.995 517.285C504.925 520.572 512.42 520.492 518.172 520.253C523.962 520.013 530.151 518.758 534.674 515.011L534.871 514.844C537.329 512.719 539.574 509.12 535.81 507.074C534.336 506.273 532.743 506.32 531.344 505.93C530.034 508.425 527.909 510.423 525.317 510.809C523.222 511.12 521.779 508.561 523.685 507.337L524.113 507.078C526.506 505.594 528.548 503.308 528.494 500.331C528.457 498.264 525.487 495.653 523.552 497.595L523.463 497.688C521.844 499.462 518.992 497.227 520.057 495.262L520.108 495.173M139.501 381.571C139.494 381.127 140.136 380.961 140.361 381.346C144.119 387.771 146.084 395.647 148.086 402.726C150.183 410.142 151.876 417.633 153.396 425.178C156.476 440.458 158.118 455.65 158.229 471.223C158.244 473.447 154.517 474.038 154.152 471.76C151.731 456.612 149.412 441.448 146.972 426.304C145.745 418.687 144.316 411.099 142.949 403.505M176.708 392.763C176.432 391.877 177.759 391.581 178.098 392.391C185.64 410.382 188.195 430.772 183.352 449.753C182.611 452.656 178.235 451.398 178.794 448.531M273.998 376.777C273.96 376.113 274.846 376.009 275.18 376.465C278.754 381.359 280.237 387.912 286.507 390.441C289.638 391.703 293.16 391.483 295.926 393.616C297.775 395.042 299.193 397.294 297.805 399.454C297.358 400.152 296.105 400.501 295.497 399.743C294.61 398.638 294.141 397.315 292.937 396.487C291.238 395.319 288.946 395.247 286.998 394.698C284.478 393.988 282.257 392.745 280.438 390.9M333.705 295.162C334.074 294.979 334.427 295.096 334.663 295.405C334.999 295.846 334.958 296.275 334.546 296.578C335.096 297.671 335.746 300.409 335.839 300.807C336.216 302.423 336.616 304.029 337.035 305.634C337.88 308.871 338.62 312.133 339.465 315.371C340.362 318.803 341.43 322.199 342.619 325.546C342.695 325.763 342.78 325.984 342.868 326.209L343.004 326.548L343.037 326.496C343.278 326.125 343.781 326.385 343.722 326.777C343.666 327.134 343.592 327.489 343.529 327.847L343.654 328.167C344.431 330.2 344.964 332.342 343.537 334.136C343.004 334.808 342.416 335.205 341.685 335.323C340.511 339.082 339.039 342.77 337.463 346.313L337.001 347.347C334.683 352.516 332.211 357.617 328.519 362.017C324.489 366.822 318.946 370.102 315.435 375.366C313.802 377.815 312.666 380.39 311.743 383.155L311.396 384.205C310.742 386.161 309.986 388.057 308.098 389.204C307.495 389.57 306.593 389.454 306.107 388.955C302.235 384.974 306.288 377.542 308.623 373.689C311.869 368.33 316.566 364.902 321.269 360.859C326.339 356.501 329.573 350.671 332.701 344.928C334.617 341.41 336.467 337.816 338.414 334.282C336.38 332.534 335.729 329.063 335.039 326.65L334.977 326.434C333.837 322.57 332.932 318.606 332.36 314.625C331.81 310.797 331.58 307.023 331.726 303.174L331.768 302.193M341.27 313.382C340.821 312.783 341.565 312.105 342.182 312.23C345.932 312.983 349.598 315.189 352.963 316.973L353.323 317.162C356.009 318.57 358.712 320.294 360.123 323.029C361.657 326.002 361.531 329.425 361.322 332.656L361.302 332.958C361.045 336.832 361.004 340.857 360.161 344.661C359.729 346.608 357.914 347.156 356.363 346.696C354.517 352.36 349.331 356.534 345.543 361.003C340.714 366.701 341.623 374.395 342.128 381.258C342.332 384.036 338.775 384.826 336.943 383.344L332.722 379.936C332.019 379.367 331.317 378.798 330.616 378.226C330.017 377.735 329.422 377.241 328.833 376.741L327.953 375.985C327.562 375.646 325.84 373.776 325.336 373.699C324.116 373.51 321.218 376.634 320.226 377.614L320.101 377.736C318.234 379.515 316.547 381.429 314.976 383.459C314.687 383.832 314.122 383.522 314.328 383.091C315.736 380.161 317.373 377.359 319.317 374.737L319.71 374.215C321.003 372.521 322.739 369.531 325.021 369.031C327.808 368.421 330.591 371.137 332.619 372.644L332.748 372.739C333.712 373.442 334.666 374.158 335.618 374.879C335.518 369.769 336.183 364.606 338.897 360.203C340.812 357.098 343.68 354.798 346.134 352.129C348.866 349.157 350.292 345.505 352.766 342.411C353.084 342.013 353.523 341.798 353.998 341.73C354.094 339.242 354.471 336.729 354.762 334.268L354.846 333.532C355.141 330.858 355.837 327.591 354.49 325.087C353.217 322.722 350.297 321.052 348.135 319.447L346.369 318.116M219.57 285.107C218.441 285.742 217.386 286.531 216.428 287.518C213.415 290.624 211.26 294.49 209.163 298.209C208.034 300.212 206.946 302.238 205.807 304.236C205.312 305.105 204.803 305.965 204.289 306.824C204.051 307.219 203.343 308.006 202.993 308.49C203.382 309.02 203.785 309.543 204.196 310.059C204.353 310.256 215.163 321.7 218.932 326.179C224.702 333.039 229.86 340.286 234.269 348.042C238.587 355.637 241.875 363.679 245.875 371.421C247.877 375.297 250.113 379.146 252.963 382.501C253.073 382.632 253.189 382.755 253.302 382.884C254.389 380.029 257.177 376.971 258.545 375.216L258.673 375.05C261.778 370.983 265.057 367.039 268.407 363.161C271.467 359.621 274.604 356.157 277.818 352.75L279.026 351.475C281.265 349.124 284.109 345.608 287.387 343.929C287.036 343.32 286.629 342.719 286.162 342.125C283.091 338.225 278.75 335.395 274.467 332.842L271.689 331.2C261.218 324.999 250.911 318.511 241.82 310.455C237.011 306.192 232.268 301.727 228.226 296.754L226.796 294.996M237.041 282.038C232.137 282.437 226.842 282.342 222.311 283.895C226.339 287.595 230.168 291.591 234.102 295.354C234.452 292.809 235.168 290.295 235.774 287.813" fill="black"/>
<path fill-rule="evenodd" clip-rule="evenodd" d="M378.176 103.872C375.83 89.8646 383.53 86.9584 378.176 73.6433C366.278 48.9716 333.854 50.0346 310.06 48.1377C283.522 47.1339 256.661 50.5916 232.196 61.0891C226.352 63.5962 220.731 66.5448 215.343 69.8948C210.684 72.792 211.324 78.3004 214.262 81.3052C193.078 110.911 205.194 150.65 188.292 181.814C185.169 187.385 181.039 192.38 178.325 198.176C174.2 206.986 173.935 219.61 183.291 225.462C196.468 232.442 203.821 218.622 210.296 238.655C242.631 308.508 307.643 312.442 369.36 276.024C374.699 273.092 380.149 269.779 384.181 265.174C393.333 255.009 392.255 240.715 392.458 228.021C392.571 220.583 392.589 213.143 392.516 205.703C392.228 175.566 382.107 133.761 378.176 103.872Z" fill="#EDB98A"/>
<path fill-rule="evenodd" clip-rule="evenodd" d="M246.724 20.0928C283.988 3.41065 326.253 -2.91563 366.901 1.23393C386.964 3.27885 406.763 7.66608 425.605 14.7927L427.257 15.4226C431.908 17.1894 436.922 18.9431 440.456 22.5394C444.57 26.7189 445.724 33.0392 442.783 38.2022C440.499 42.2138 436.392 45.0915 432.011 46.6272C433.554 47.8745 435.018 49.2657 436.392 50.8188C438.706 53.4212 438.883 57.1325 436.392 59.6995C431.592 64.6466 425.364 68.2259 418.656 69.9415C419.409 73.5334 419.002 77.5091 417.386 81.089C412.748 91.3651 399.684 92.5898 389.631 91.9796L389.327 91.9606L388.768 98.2749C388.47 101.639 386.429 104.247 382.966 104.763C382.844 104.781 382.722 104.793 382.601 104.804C388.082 124.366 391.393 144.531 394.449 164.578C396.046 175.042 397.475 185.531 398.844 196.027L399.298 199.525C400.756 210.841 402.579 222.27 403.211 233.669C403.776 244.013 401.777 253.889 395.318 262.236C389.522 269.72 381.617 275.327 373.117 279.488C353.91 288.896 333.696 295.901 312.454 299.151L311.038 299.366C302.838 300.601 294.39 301.642 286.279 299.403C279.153 297.436 271.679 292.363 273.289 284.213C273.829 281.461 277.73 281.341 279.067 283.47L279.375 283.958C280.978 286.468 282.735 288.8 285.532 290.095C288.807 291.619 292.604 292.044 296.183 292.087C306.178 292.201 316.586 289.742 326.21 287.278C344.183 282.673 362.642 275.165 377.364 263.789C383.628 258.956 388.659 252.912 390.433 245.134C392.626 235.546 390.609 225.064 389.613 215.428C387.562 195.544 385.122 175.697 382.547 155.872L382.03 151.907C379.861 135.333 377.583 118.753 376.501 102.083C376.051 101.477 375.747 100.787 375.626 100.032L375.456 98.9465V98.9465C375.31 98.017 375.286 97.1655 375.389 96.38C375.395 93.3697 375.48 90.3775 375.656 87.3667C375.686 86.8276 375.711 86.2879 375.729 85.7542C372.558 86.4438 369.362 87.0015 366.154 87.4752C343.6 90.8272 320.693 91.6667 297.957 89.9997C286.613 89.1656 275.355 87.7331 264.132 85.9401C258.42 85.0286 252.728 84.0212 247.053 82.8939C242.951 82.0844 238.935 80.987 234.901 79.9556C230.739 85.9341 228.491 93.2918 228.928 100.518C229.42 108.763 234.986 116.24 233.424 124.665C231.959 132.55 225.114 134.995 218.356 136.948L215.482 137.767C213.271 138.404 211.666 139.019 211.265 141.641C210.579 146.145 211.423 151.212 211.6 155.739C211.812 161.094 212.091 166.449 212.219 171.804C212.286 174.574 212.395 177.356 212.389 180.127C212.383 182.094 212.086 183.437 211.314 184.707C211.909 185.446 212.444 186.243 212.918 187.089C213.07 187.364 212.693 187.658 212.469 187.43C211.867 186.813 211.228 186.255 210.555 185.757C210.214 186.171 209.819 186.591 209.357 187.041L209.321 186.993V186.993C207.875 188.414 205.578 188.552 203.785 187.041L203.315 186.638C202.002 185.503 201.101 184.557 200.736 182.681C200.718 182.585 200.699 182.489 200.687 182.393C197.351 182.279 193.961 183.058 190.96 184.696C186.202 187.292 182.854 190.992 180.874 195.562C181.663 196.473 182.587 197.289 183.662 197.972C183.814 198.074 183.681 198.296 183.517 198.218C182.417 197.708 181.432 197.079 180.551 196.341C179.841 198.14 179.342 200.071 179.039 202.116C177.969 209.336 179.877 218.156 186.488 222.27C189.349 224.051 192.618 225.016 196.009 225.028C197.661 225.034 199.089 224.758 200.693 224.369C201.781 224.105 202.862 223.721 203.999 223.721C204.971 223.721 205.87 223.961 206.702 224.441L206.472 224.461C205.91 224.513 206.018 224.536 206.8 224.536C209.23 224.639 210.621 227.073 209.503 229.19L209.357 229.517C209.326 229.583 209.3 229.638 209.279 229.681L209.191 230.242C209.182 230.296 209.173 230.351 209.163 230.407L209.129 230.521C209.123 230.539 209.117 230.557 209.108 230.575L212.753 236.061C217.222 242.772 221.791 249.457 226.99 255.586C230.636 259.886 234.5 264.101 238.583 268.005C242.253 271.513 246.652 273.204 250.808 275.962C253.026 277.425 253.676 280.49 251.659 282.463C245.74 288.261 237.362 283.656 232.507 278.943C227.914 274.475 223.946 269.102 220.525 263.724C214.455 254.159 209.625 243.989 207.51 232.95C206.629 233.747 205.505 234.245 204.369 234.635C202.091 235.414 199.581 235.738 197.175 235.822C192.564 235.972 187.946 234.869 183.796 232.914C166.911 224.968 164.432 201.174 174.755 187.143C173.363 183.159 172.586 178.836 171.741 175.15L171.357 173.502C167.087 155.097 164.222 135.72 171.79 117.685C172.762 115.359 173.856 113.092 175.15 110.921C176.189 109.176 177.975 107.318 178.467 105.333C179.561 100.973 172.811 96.392 170.842 92.932C168.527 88.8724 168.199 84.0812 171.352 80.3688C171.754 79.9017 172.19 79.4693 172.665 79.0921C169.676 73.7433 169.536 67.0152 173.473 61.7383C176.061 58.2604 180.011 55.8258 184.325 55.0883C186.962 54.6385 190.133 54.8064 193.031 55.6099C208.901 41.0685 227.008 28.9196 246.724 20.0928ZM185.783 202.044C190.018 198.356 194.697 196.425 200.469 196.911C206.271 197.402 213.259 199.771 216.667 204.682C219.359 208.562 213.872 214.253 209.923 211.338C206.326 208.682 203.925 205.684 199.46 204.257C195.449 202.979 190.485 202.158 186.287 202.889C185.825 202.967 185.364 202.404 185.783 202.044Z" fill="black"/>
<path fill-rule="evenodd" clip-rule="evenodd" d="M314.343 259.41C310.016 257.641 306.156 254.69 303.334 250.921C302.353 249.611 302.098 248.227 302.304 246.961C302.536 245.538 303.376 244.248 304.521 243.383C305.67 242.515 307.108 242.087 308.498 242.305C309.705 242.495 310.907 243.158 311.859 244.532L312.057 244.807C313.735 247.082 315.922 248.949 318.413 250.152C320.814 251.311 323.5 251.853 326.279 251.538C331.571 250.939 335.22 248.07 339.097 244.174C339.578 243.682 340.059 243.175 340.542 242.659C340.847 242.192 341.271 241.892 341.741 241.734C342.263 241.559 342.854 241.569 343.395 241.758C343.916 241.941 344.383 242.287 344.696 242.747C344.993 243.184 345.161 243.725 345.107 244.346C344.752 248.384 342.646 251.987 339.654 254.817C336.332 257.959 331.927 260.133 327.781 260.895C323.213 261.735 318.558 261.133 314.343 259.41V259.41ZM329.936 197.124C334.796 200.085 342.201 206.989 336.973 214.329C330.819 220.801 321.958 213.381 317.592 210.025C313.543 207.424 308.994 214.113 312.75 217.15C344.302 240.563 357.106 197.898 332.394 193.643C329.673 193.174 328.663 196.208 329.936 197.124ZM273.395 169.89C273.932 163.209 284.083 161.692 285.093 168.303C285.997 174.224 284.933 179.664 282.272 184.995C279.729 190.089 273.337 187.713 272.854 183.075C272.206 176.858 273.061 174.045 273.395 169.89ZM350.668 166.932C352.083 165.074 354.127 163.806 356.575 164.523C364.224 166.763 361.969 177.647 359.283 182.945C357.823 185.822 353.105 186.551 350.973 184.018C347.497 179.887 345.833 171.638 350.251 167.569C350.371 167.359 350.504 167.146 350.668 166.932ZM282.164 140.659L283.372 140.447C287.11 139.799 291.758 139.176 294.402 142.188C295.804 143.785 296.287 146.754 294.402 148.282C291.086 150.972 287.42 149.93 283.446 150.158C280.172 150.346 277.025 150.889 273.87 151.793C266.95 153.775 261.312 157.394 255.402 161.367C254.626 161.889 253.835 160.894 254.205 160.168C257.616 153.47 264.228 147.968 270.851 144.615C274.385 142.825 278.253 141.34 282.164 140.659ZM343.695 137.658L344.62 137.848C354.684 139.957 367.76 144.168 372.525 154.076C372.707 155.477 372.515 155.777 372.359 155.973L372.307 156.039C372.179 156.206 372.076 156.437 371.47 156.628C371.302 156.588 371.132 156.545 370.961 156.5C368.776 155.926 367.048 155.136 365.374 154.315L363.56 153.42C361.455 152.385 359.332 151.388 357.081 150.653C352.279 149.083 347.339 147.977 342.322 147.386C341.235 147.258 340.188 146.89 339.362 146.26C338.578 145.662 337.979 144.833 337.706 143.732C337.352 142.307 337.454 141.228 338.216 139.943C338.79 138.978 339.611 138.308 340.553 137.924C341.514 137.532 342.608 137.44 343.695 137.658Z" fill="black"/>
<path fill-rule="evenodd" clip-rule="evenodd" d="M378.56 181.183C373.842 212.96 340.904 216.474 335.052 184.927C335.991 184.518 336.667 183.711 336.526 182.146C336.493 175.272 338.636 168.005 344.865 164.182C351.301 160.237 358.834 159.846 366.283 159.945C380.497 159.608 380.199 171.438 378.56 181.183M329.896 167.362C325.435 167.175 319.791 167.332 315.795 170.038C314.696 167.092 311.841 163.947 308.957 162.265C319.677 162.578 330.713 161.527 341.513 160.712C338.928 162.466 336.523 165.103 334.959 168.15C333.509 167.38 331.431 167.452 329.896 167.362M310.232 184.552C297.862 226.946 266.985 208.468 263.619 203.035C257.547 194.044 256.405 172.188 261.694 166.345C269.265 161.061 279.983 162.421 288.927 162.291C305.358 162.512 317.027 167.406 310.232 184.552M393.166 165.053C389.805 164.615 386.214 164.527 383.089 166C382.127 161.929 379.106 158.525 375.696 157.027C375.283 156.511 375.345 156.235 373.935 156.312C365.277 153.721 355.588 155.092 347.268 157.749C334.128 158.851 320.341 159.719 307.09 161.237C294.677 155.687 257.217 154.874 254.889 168.554C251.961 168.118 246.974 165.823 244.513 168.936C226.463 165.889 207.813 170.123 189.686 172.009C185.123 172.846 182.772 181.862 187.952 181.739C190.864 180.952 187.862 176.125 191.783 175.761C209.274 173.859 226.381 171.161 244.051 170.845C243.436 173.883 255.737 174.081 255.919 172.307C255.945 172.32 255.973 172.329 255.999 172.341C252.96 183.62 255.704 199.852 261.197 206.846C268.894 216.005 288.217 218.632 296.785 212.74C307.838 207.301 319.336 180.001 316.106 170.932C321.967 169.082 327.762 169.637 333.845 170.58C332.453 174.496 330.049 184.139 333.507 184.975C332.872 204.118 350.371 216.063 366.501 208.21C380.463 201.685 385.346 181.029 383.637 168.492C385.375 171.836 399.969 168.196 393.166 165.053" fill="black"/>
</svg>
